<svg width="1831" height="411" viewBox="0 0 1831 411" fill="none" xmlns="http://www.w3.org/2000/svg">
<path d="M114.4 400.95V90.2002H0.000391133V7.70018H327.25V90.2002H211.75V400.95H114.4ZM363.499 400.95V7.70018H460.849V318.45H637.399V400.95H363.499ZM674.485 400.95V7.70018H862.585C902.919 7.70018 935.919 17.7835 961.585 37.9502C987.252 57.7502 1000.09 85.4335 1000.09 121C1000.09 168.667 977.352 200.384 931.885 216.15V217.8C964.885 228.8 983.952 252.817 989.085 289.85C991.285 302.684 992.752 318.634 993.485 337.7C994.585 356.4 995.869 370.517 997.335 380.05C998.802 389.217 1001.55 394.534 1005.59 396V400.95H910.985C908.052 399.117 905.668 393.8 903.835 385C902.368 376.2 901.085 363.734 899.985 347.6C898.885 331.467 897.602 318.817 896.135 309.65C891.002 272.25 869.185 253.55 830.685 253.55H771.835V400.95H674.485ZM771.835 181.5H844.985C864.052 181.5 878.535 177.284 888.435 168.85C898.335 160.417 903.285 148.684 903.285 133.65C903.285 118.984 898.519 107.25 888.985 98.4502C879.452 89.2835 865.518 84.7002 847.185 84.7002H771.835V181.5ZM1221.68 409.75C1164.48 409.75 1117.73 390.684 1081.43 352.55C1045.5 314.05 1027.53 265.1 1027.53 205.7C1027.53 146.3 1045.31 97.1669 1080.88 58.3002C1116.45 19.4335 1163.2 0.000177741 1221.13 0.000177741C1265.86 0.000177741 1303.26 11.5502 1333.33 34.6502C1367.43 60.3169 1387.05 96.4335 1392.18 143H1294.83C1292.26 125.034 1284.38 110.184 1271.18 98.4502C1257.98 86.7169 1241.11 80.8502 1220.58 80.8502C1189.78 80.8502 1166.31 92.4002 1150.18 115.5C1134.41 138.234 1126.53 168.3 1126.53 205.7C1126.53 242.367 1135.15 272.25 1152.38 295.35C1169.61 318.45 1192.53 330 1221.13 330C1242.4 330 1259.81 323.95 1273.38 311.85C1287.31 299.75 1295.38 283.984 1297.58 264.55H1394.93C1392 304.15 1376.23 337.7 1347.63 365.2C1316.83 394.9 1274.85 409.75 1221.68 409.75ZM1629.31 326.7C1594.11 326.7 1565.51 315.15 1543.51 292.05C1521.88 268.95 1511.06 239.434 1511.06 203.5C1511.06 167.567 1522.06 138.05 1544.06 114.95C1566.06 91.4835 1594.66 79.7502 1629.86 79.7502C1656.26 79.7502 1679.36 86.9002 1699.16 101.2C1720.43 117.334 1732.53 139.884 1735.46 168.85H1669.46C1667.63 159.684 1663.23 152.167 1656.26 146.3C1649.29 140.067 1640.31 136.95 1629.31 136.95C1613.54 136.95 1601.44 143.184 1593.01 155.65C1584.58 167.75 1580.36 183.7 1580.36 203.5C1580.36 222.934 1584.94 238.884 1594.11 251.35C1603.28 263.817 1615.38 270.05 1630.41 270.05C1642.14 270.05 1651.68 266.75 1659.01 260.15C1666.34 253.55 1670.56 245.117 1671.66 234.85H1738.21C1736.01 260.517 1725.93 281.967 1707.96 299.2C1689.26 317.534 1663.04 326.7 1629.31 326.7ZM1627.66 381.7C1675.69 381.7 1715.84 365.017 1748.11 331.65C1780.38 297.917 1796.51 255.934 1796.51 205.7C1796.51 155.1 1780.38 113.117 1748.11 79.7502C1715.84 46.0168 1675.69 29.1502 1627.66 29.1502C1579.26 29.1502 1538.93 46.0168 1506.66 79.7502C1474.39 113.117 1458.26 155.1 1458.26 205.7C1458.26 255.934 1474.39 297.917 1506.66 331.65C1538.93 365.017 1579.26 381.7 1627.66 381.7ZM1627.66 410.3C1570.46 410.3 1522.24 390.867 1483.01 352C1444.14 312.767 1424.71 264 1424.71 205.7C1424.71 147.4 1444.33 98.6335 1483.56 59.4002C1522.79 20.1668 1570.83 0.550171 1627.66 0.550171C1684.49 0.550171 1732.34 20.1668 1771.21 59.4002C1810.44 98.2668 1830.06 147.034 1830.06 205.7C1830.06 264 1810.44 312.767 1771.21 352C1732.34 390.867 1684.49 410.3 1627.66 410.3Z" fill="black"/>
</svg>
